<?xml version="1.0" encoding="UTF-8"?>
<svg xmlns="http://www.w3.org/2000/svg" width="1070" height="237" viewBox="0 0 1070 237" fill="none">
  <path d="M0 55.5512V111.028H114.77V82.5453H35.5038V0.0854492H0V55.5512Z" fill="#1B2433"></path>
  <path d="M122.536 55.4797L122.618 110.899H158.122L158.205 55.4797L158.26 0.0854492H122.48L122.536 55.4797Z" fill="#1B2433"></path>
  <path d="M289.811 55.5507V111.028H324.279L324.113 86.9722C324.003 73.7641 323.865 61.2219 323.81 59.1114C323.755 57.0008 323.672 49.1668 323.617 41.7152L323.535 28.1549L325.323 28.0723L327.113 28.0173L337.322 42.4554C350.121 60.5643 358.873 72.9193 373.901 94.1871L385.763 110.898L415.269 110.981L444.773 111.036V0.0849233H410.085L410.222 11.0917C410.526 31.9137 410.911 69.5265 410.911 76.048V82.5393H407.443L394.258 63.8278C386.994 53.553 376.589 38.7874 371.118 31.0331C365.647 23.2789 358.512 13.172 355.292 8.5684L349.375 0.214245L319.595 0.131748L289.816 0.0766602L289.811 55.5507Z" fill="#1B2433"></path>
  <path d="M460.231 55.4797L460.314 110.899H495.817L495.9 90.8113L495.955 70.7571H572.483L572.535 90.8113L572.618 110.899H608.127L608.207 55.4797L608.26 0.0854492H572.483V39.8088H495.955V0.0854492H460.176L460.231 55.4797Z" fill="#1B2433"></path>
  <path d="M623.856 0.276902C623.608 0.494285 623.608 110.022 623.831 110.598C623.988 110.983 631.972 111.038 705.241 111.038H786.455L791.273 101.586L796.091 92.1475H869.727L874.46 101.517L879.217 110.914L898.432 110.997C912.33 111.024 917.616 110.969 917.616 110.749C917.616 110.584 916.104 107.598 914.255 104.093C912.407 100.587 908.845 93.7985 906.324 88.9831C903.804 84.1676 897.592 72.3821 892.55 62.82C887.509 53.2579 878.322 35.7545 872.126 23.9194C865.931 12.0844 860.54 1.8922 860.162 1.23455L859.493 0.0842973L833.047 0.139318L806.601 0.221882L794.876 22.2739C788.411 34.4116 778.251 53.5055 772.309 64.7379C766.367 75.9703 761.194 85.6508 760.863 86.2452C760.532 86.8395 757.502 92.574 754.094 98.9552L747.924 110.57L747.844 97.362L747.783 84.1842H657.239V66.6504H742.56V42.2677H657.239V26.107H746.962L746.993 13.9721C747.023 7.31297 747.048 1.45193 747.07 0.959382L747.13 0.081543H685.594C651.735 0.0842947 623.939 0.166835 623.856 0.276902ZM840.54 34.109C842.851 38.685 845.165 43.151 845.633 44.0535C847.308 47.1492 857.611 67.3961 857.611 67.586C857.611 67.6685 846.521 67.7511 832.978 67.7511C819.435 67.7511 808.339 67.6685 808.339 67.5584C808.339 67.3961 824.107 36.4643 828.099 28.7596L829.642 25.8291H836.331L840.54 34.109Z" fill="#1B2433"></path>
  <path d="M922.832 55.5897V111.091L973.008 110.954C1028.03 110.791 1032.65 110.679 1042.03 109.118C1050.02 107.778 1055.39 105.31 1059.84 100.927C1065.42 95.4232 1067.96 88.134 1069.25 73.7784C1069.72 68.5722 1069.92 45.5901 1069.56 38.9861C1068.81 25.5358 1066.59 17.8366 1061.75 11.7279C1057.61 6.54918 1052.24 3.61866 1043.66 1.92087C1034.66 0.113012 1033.69 0.0854492 974.936 0.0854492H922.832V55.5897ZM1017.66 28.0564C1027.57 28.5765 1031.31 30.2577 1033.76 35.2603C1035.52 38.8375 1036.21 43.8621 1036.35 53.9168C1036.51 65.2592 1035.93 71.3404 1034.31 74.7938C1032.1 79.5322 1027.82 81.5327 1018.35 82.2729C1016.12 82.4353 1002.82 82.5481 985.396 82.5481H956.137V55.3449C956.137 40.3592 956.22 28.0316 956.33 27.949C956.575 27.6739 1012.58 27.7812 1017.66 28.0564Z" fill="#1B2433"></path>
  <path d="M417.305 133.753C408.391 134.152 404.129 135.239 401.631 137.757C398.6 140.808 397.815 145.607 398.049 159.341C398.286 172.678 399.151 175.171 404.385 177.664C408.41 179.549 413.776 179.998 430.19 179.813C447.181 179.602 450.941 178.911 454.123 175.306C456.327 172.83 456.782 170.353 456.939 159.74L457.016 153.774H425.986L425.909 158.202L425.853 162.657H443.74V164.52C443.74 168.922 442.977 169.131 426.749 168.947C415.179 168.84 414.597 168.787 413.281 167.434C411.964 166.08 411.782 164.888 411.782 156.702C411.782 149.303 411.782 149.272 412.44 147.952C413.834 145.167 415.991 144.795 429.931 144.983C442.503 145.115 442.925 145.258 443.371 148.535L443.556 149.941H456.969L456.812 146.413C456.655 142.561 456.261 140.924 455.076 139.014C453.578 136.628 451.104 135.382 446.319 134.534C441.137 133.621 428.41 133.277 417.305 133.753Z" fill="#1B2433"></path>
  <path d="M201.716 156.995V179.248L223.275 179.091C235.558 178.986 245.837 178.816 247.181 178.648C252.14 178.073 254.324 177.212 256.696 174.886C259.332 172.275 260.071 169.636 260.553 161.252C261.104 151.508 260.368 144.431 258.445 140.958C257.495 139.208 255.046 137.012 253.305 136.385C249.352 134.924 249.853 134.948 224.864 134.844L201.724 134.739L201.716 156.995ZM239.704 145.972C243.561 146.247 244.633 146.624 245.765 148.14C246.897 149.708 247.162 151.508 247.162 157.221C247.162 163.907 246.713 165.476 244.407 166.626C242.613 167.539 240.426 167.669 227.616 167.669H215.148V145.727H225.771C231.605 145.762 237.878 145.867 239.704 145.972Z" fill="#1B2433"></path>
  <path d="M322.142 156.995V179.248H336.593V134.739H322.142V156.995Z" fill="#1B2433"></path>
  <path d="M519.044 156.995V179.248H532.892V134.739H519.044V156.995Z" fill="#1B2433"></path>
  <path d="M592.502 140.374V146.009L602.499 146.061L612.458 146.141L612.518 162.519C612.565 171.534 612.595 178.977 612.595 179.109C612.595 179.241 615.763 179.266 619.678 179.241L626.741 179.161L626.818 162.571L626.868 146.009H646.702V134.727H592.502V140.374Z" fill="#1B2433"></path>
  <path d="M707.688 156.692C701.289 168.769 696.068 178.777 696.068 178.959C696.068 179.14 698.14 179.248 703.68 179.248H711.283L713.176 175.45L715.104 171.65H744.627L746.517 175.45L748.445 179.248H755.952C761.624 179.248 763.514 179.171 763.514 178.934C763.514 178.777 758.343 168.753 752.046 156.667L740.555 134.739H719.299L707.688 156.692ZM731.966 146.511C734.407 151.123 739.657 161.758 739.578 161.863C739.495 161.915 735.062 161.94 729.71 161.915L719.972 161.835L722.357 157.122C723.647 154.527 725.613 150.729 726.685 148.66L728.63 144.94H731.109L731.966 146.511Z" fill="#1B2433"></path>
  <path d="M822.571 156.915L822.648 179.118L845.474 179.196L868.278 179.248V167.729H836.901V134.739H822.516L822.571 156.915Z" fill="#1B2433"></path>
  <path d="M0 156.694V163.009H172.213V150.376H0V156.694Z" fill="#1B2433"></path>
  <path d="M897.182 156.694V163.009H1070V150.376H897.182V156.694Z" fill="#1B2433"></path>
  <path d="M16.7574 236.588V231.932H5.13218V213.323H0V236.585L16.7574 236.588Z" fill="#1B2433"></path>
  <path d="M63.6737 236.591L53.6793 213.163H48.9465L38.9521 236.591H44.1863L46.3185 231.363H56.1806L58.3128 236.591H63.6737ZM54.3459 226.853H48.1476L51.244 219.31L54.3459 226.853Z" fill="#1B2433"></path>
  <path d="M118.183 213.326H112.82L107.988 229.08L102.754 213.26H98.3462L93.1121 229.08L88.2802 213.326H82.8037L90.7651 236.754H95.2306L100.492 221.535L105.757 236.754H110.23L118.183 213.326Z" fill="#1B2433"></path>
  <path d="M190.375 217.978V213.325H172.617V236.587H177.749V227.581H188.876V222.928H177.749V217.975L190.375 217.978Z" fill="#1B2433"></path>
  <path d="M220.17 236.587V213.325H215.041V236.587H220.17Z" fill="#1B2433"></path>
  <path d="M266.479 236.587L260.782 228.28C263.746 227.179 265.779 224.824 265.779 221.068V221.002C265.779 216.217 262.473 213.325 256.983 213.325H246.319V236.587H251.452V229.144H255.482L260.479 236.587H266.479ZM260.584 221.335C260.584 223.294 259.148 224.637 256.65 224.637H251.454V217.959H256.551C259.049 217.959 260.584 219.09 260.584 221.283V221.335Z" fill="#1B2433"></path>
  <path d="M314.043 236.587V213.325H308.511L302.382 223.162L296.252 213.325H290.721V236.587H295.751V221.5L302.249 231.337H302.382L308.946 221.401V236.587H314.043Z" fill="#1B2433"></path>
  <path d="M393.598 236.587V213.325H388.066L381.937 223.162L375.807 213.325H370.281V236.587H375.312V221.5L381.81 231.337H381.942L388.504 221.401V236.587H393.598Z" fill="#1B2433"></path>
  <path d="M442.247 236.591L432.266 213.163H427.536L417.539 236.591H422.773L424.905 231.363H434.745L436.878 236.591H442.247ZM432.919 226.853H426.721L429.82 219.31L432.919 226.853Z" fill="#1B2433"></path>
  <path d="M486.324 236.587L480.627 228.28C483.591 227.179 485.624 224.824 485.624 221.068V221.002C485.624 216.217 482.318 213.325 476.828 213.325H466.167V236.587H471.296V229.144H475.329L480.327 236.587H486.324ZM480.426 221.335C480.426 223.294 478.993 224.637 476.495 224.637H471.296V217.959H476.396C478.894 217.959 480.426 219.09 480.426 221.283V221.335Z" fill="#1B2433"></path>
  <path d="M531.792 236.587L521.875 223.195L531.37 213.325H525.172L515.709 223.506V213.325H510.58V236.587H515.709V229.474L518.409 226.684L525.638 236.59L531.792 236.587Z" fill="#1B2433"></path>
  <path d="M572.982 236.587V232.033H560.324V227.149H571.318V222.598H560.324V217.879H572.817V213.325H555.225V236.587H572.982Z" fill="#1B2433"></path>
  <path d="M615.526 218.044V213.325H596.201V218.044H603.298V236.587H608.427V218.044H615.526Z" fill="#1B2433"></path>
  <path d="M645.16 236.587V213.325H640.03V236.587H645.16Z" fill="#1B2433"></path>
  <path d="M692.044 236.587V213.325H686.98V227.633L676.052 213.325H671.319V236.587H676.383V221.8L687.677 236.587H692.044Z" fill="#1B2433"></path>
  <path d="M739.15 233.31V223.208H729.021V227.628H734.191V230.952C732.888 231.882 731.227 232.347 729.362 232.347C725.23 232.347 722.299 229.224 722.299 224.97V224.903C722.299 220.949 725.26 217.658 728.993 217.658C731.69 217.658 733.293 218.522 735.092 220.019L738.321 216.131C735.888 214.07 733.362 212.942 729.161 212.942C722.101 212.942 716.933 218.357 716.933 224.97V225.036C716.933 231.915 721.93 237 729.191 237C732.848 237.009 736.384 235.699 739.15 233.31V233.31Z" fill="#1B2433"></path>
  <path d="M812.473 236.587V232.033H799.801V227.149H810.796V222.598H799.801V217.879H812.294V213.325H794.705V236.587H812.473Z" fill="#1B2433"></path>
  <path d="M857.911 236.587L849.782 224.689L857.58 213.325H851.751L846.82 220.87L841.919 213.325H835.922L843.718 224.758L835.589 236.59H841.418L846.688 228.61L851.922 236.59L857.911 236.587Z" fill="#1B2433"></path>
  <path d="M900.534 221.434V221.368C900.534 216.616 897.168 213.325 891.606 213.325H882.08V236.587H887.209V229.609H891.105C896.339 229.609 900.534 226.816 900.534 221.434ZM895.339 221.533C895.339 223.528 893.84 225.055 891.273 225.055H887.209V217.945H891.176C893.744 217.945 895.339 219.175 895.339 221.467V221.533Z" fill="#1B2433"></path>
  <path d="M942.417 236.587V232.033H929.761V227.149H940.75V222.598H929.761V217.879H942.249V213.325H924.659V236.587H942.417Z" fill="#1B2433"></path>
  <path d="M987.454 236.587L981.757 228.28C984.727 227.179 986.754 224.824 986.754 221.068V221.002C986.754 216.217 983.448 213.325 977.958 213.325H967.3V236.587H972.429V229.144H976.46L981.457 236.587H987.454ZM981.559 221.335C981.559 223.294 980.126 224.637 977.628 224.637H972.429V217.959H977.526C980.024 217.959 981.559 219.09 981.559 221.283V221.335Z" fill="#1B2433"></path>
  <path d="M1029.36 218.044V213.325H1010.04V218.044H1017.13V236.587H1022.26V218.044H1029.36Z" fill="#1B2433"></path>
  <path d="M1070 229.712V229.646C1070 225.592 1067.33 223.897 1062.61 222.667C1058.57 221.636 1057.57 221.138 1057.57 219.61V219.553C1057.57 218.422 1058.61 217.525 1060.57 217.525C1062.54 217.525 1064.57 218.389 1066.63 219.817L1069.3 215.964C1066.85 214 1063.78 212.954 1060.64 213.006C1055.87 213.006 1052.48 215.796 1052.48 220.018V220.084C1052.48 224.701 1055.51 225.997 1060.19 227.194C1064.09 228.19 1064.89 228.845 1064.89 230.152V230.218C1064.89 231.58 1063.62 232.419 1061.53 232.419C1058.86 232.419 1056.66 231.319 1054.56 229.596L1051.53 233.217C1054.26 235.628 1057.78 236.953 1061.42 236.938C1066.47 236.921 1070 234.332 1070 229.712Z" fill="#1B2433"></path>
  <path d="M229.722 42.1479C226.262 41.3499 222.303 40.3455 219.168 43.6861C220.248 43.5602 221.335 43.5115 222.421 43.5403C221.817 44.0162 221.244 44.5299 220.705 45.0785C220.705 45.0785 222.184 46.38 226.027 46.1791C229.87 45.9783 231.788 44.9657 231.788 44.9657L229.779 44.7868C230.19 44.5365 230.585 44.2608 230.961 43.9612C232.289 44.7868 236.074 46.2094 236.87 46.8918C234.862 44.8171 231.818 41.6829 229.807 39.6411C229.81 40.6923 229.79 41.4985 229.722 42.1479Z" fill="#4B81BF"></path>
  <path d="M226.295 0C206.67 0 181.637 12.6054 173.186 32.1341C175.769 30.5885 178.436 29.1858 181.174 27.9323C176.444 31.7489 170.26 43.6583 169.816 51.795L174.141 48.0362C171.993 61.9514 173.315 77.6856 192.461 94.4709C192.461 94.4709 190.017 88.6126 189.805 88.5273C189.805 88.5273 196.995 91.4138 199.521 91.9366C189.946 83.2963 181.615 77.4352 185.251 62.3422C183.626 88.1145 214.224 86.2544 213.21 111.284C226.747 106.223 235.821 97.1401 233.871 81.3096C236.796 87.6385 234.951 95.4643 234.003 99.1956C236.163 97.7427 239.014 93.8298 240.226 91.8183C239.458 96.7576 238.452 100.101 233.369 105.428C243.446 102.822 247.645 96.3723 250.039 89.1932C249.989 91.4817 249.722 93.7603 249.24 95.9981C257.596 91.7518 264.612 85.2772 269.511 77.292C274.409 69.3067 276.998 60.1227 276.992 50.7576C276.978 22.7262 254.284 0 226.295 0ZM197.036 12.5477C197.036 12.5477 206.849 9.95834 215.094 13.3292C219.32 15.0765 222.009 17.2503 222.127 20.0322C218.846 17.5172 213.414 15.4122 209.956 15.3241C212.675 18.373 214.797 23.2875 214.739 25.0623C211.069 22.6766 198.375 15.1783 198.375 24.6193C198.375 26.8482 198.375 15.9405 183.618 22.2804C192.868 14.3803 199.813 15.4617 203.89 17.0907C201.943 15.1214 199.61 13.5748 197.036 12.5477V12.5477ZM224.033 14.749C227.667 15.0242 232.336 15.5525 233.951 16.8238C231.675 12.8614 221.885 11.0948 217.896 9.97211C226.642 10.2968 251.174 11.4608 235.661 24.9495C235.268 21.7218 236.799 20.5193 236.799 20.5193C235.835 19.658 226.113 16.0946 224.02 14.7407L224.033 14.749ZM184.64 46.2228C184.395 47.4831 184.75 37.7366 184.422 39.0271C180.582 54.1367 179.679 60.3857 182.117 78.6514C177.108 64.6756 178.177 45.59 180.904 39.6903L176.238 41.4376C181.285 31.6801 195.141 22.451 195.141 22.451C192.149 25.2054 185.918 39.5693 184.634 46.2146L184.64 46.2228ZM192.265 65.4433C185.574 55.5015 187.557 41.5587 197.067 35.4995C193.21 42.1255 192.428 49.6321 195.056 59.164L191.475 53.5671L192.265 65.4433ZM218.436 102.445C217.152 80.3052 188.265 78.1864 196.254 65.2259C199.025 79.0119 226.078 83.7916 218.433 102.437L218.436 102.445ZM231.587 67.0586C231.109 66.8273 230.648 66.5605 230.21 66.2606C232.217 64.8257 234.487 63.7974 236.89 63.2337C236.89 63.2337 231.185 62.7027 225.717 67.2017C227.518 64.805 230.626 62.0808 235.824 60.8398C235.824 60.8398 229.915 60.2894 224.328 65.0416C226.072 62.5266 229.234 59.4502 234.821 58.1184C234.821 58.1184 231.124 57.7607 226.81 59.9813C227.166 57.3782 229.648 55.0282 234.022 54.4173C227.166 51.1648 221.226 60.8398 216.083 53.7679C215.758 56.4316 217.235 58.3247 219.157 59.6841C212.948 59.4089 210.232 52.7608 211.353 44.2113C205.237 57.0535 210.053 61.58 216.35 68.5005C223.532 76.4336 232.369 86.4332 224.538 97.2914C229 72.9087 188.599 69.6562 202.844 42.4035C201.367 47.2272 202.312 54.9484 206.094 58.4706C203.819 51.9601 204.114 43.5592 214.4 33.3807C208.312 31.4875 198.293 28.7936 202.637 36.0141C197.64 31.6636 199.769 27.283 206.981 27.3738C209.375 27.4041 216.645 28.9119 220.989 29.8007C223.031 29.1183 225.122 28.4249 227.937 28.4084C225.182 26.2786 225.039 25.2109 220.576 23.227C228.998 24.5588 230.89 25.6264 236.863 30.2438L239.67 26.5758C241.945 29.5035 248.063 37.4367 249.482 39.949C251.256 43.0254 250.221 46.575 250.221 46.575C249.543 46.1925 248.862 45.7771 248.24 45.3918C249.008 44.7727 247.887 43.3198 249.617 43.6472C247.606 41.5174 246.248 41.545 244.179 41.9605C243.411 41.0256 242.746 40.0108 242.196 38.9336C242.168 44.437 247.548 46.952 251.358 50.0587C253.488 51.773 253.044 53.6359 250.207 53.9633C248.196 54.2 245.449 53.8147 244.265 53.3717C243.43 53.0717 242.523 53.0304 241.664 53.2533C240.562 53.5478 239.774 54.5247 238.634 53.1626C239.047 58.1927 246.849 56.0629 246.879 61.1425C246.923 67.6585 237.94 69.0343 231.584 67.0503L231.587 67.0586ZM255.669 29.6852C255.587 29.6989 252.044 30.3098 250.16 33.0284C249.698 33.7178 249.327 34.4643 249.058 35.2491L244.744 29.3907C245.239 28.2381 245.896 27.1616 246.694 26.1933C245.52 26.4357 244.425 26.964 243.504 27.7314L241.3 24.7046C244.019 21.4493 248.953 21.4026 255.427 23.9369C250.43 24.9716 248.659 26.8069 248.265 30.651C250.744 28.8349 255.584 29.6632 255.669 29.6852ZM253.928 52.7058C254.444 53.4343 254.806 54.2601 254.992 55.1328C255.435 57.3809 255.287 60.0858 254.992 61.968C254.992 61.9955 254.962 62.0257 254.934 62.056C251.802 67.0586 248.342 66.0212 248.727 61.7011C249.11 56.9599 254.639 56.9599 253.928 52.6975V52.7058ZM252.482 42.3099L252.207 41.5009C253.033 39.5747 255.333 37.8852 255.333 37.8852C254.08 38.4982 252.894 39.2416 251.796 40.1031L249.926 36.4048C253.683 34.0879 254.747 33.5375 261.22 36.0801C258.38 36.6607 254.033 40.9396 252.482 42.3017V42.3099ZM250.708 81.8489C247.402 81.0509 249.94 76.9675 247.678 74.3644C247.127 78.5359 246.11 81.7306 242.358 83.5082C243.628 78.6267 232.604 76.4061 237.675 69.9561C241.369 69.659 244.884 68.418 247.722 65.8286C248.609 67.2485 250.973 67.9584 252.747 68.3051C256.441 75.5118 249.942 78.5001 250.708 81.8407V81.8489ZM254.135 88.2136C254.135 88.2136 254.639 86.8377 254.135 83.156C253.631 79.4742 255.512 77.2399 255.512 77.2399C254.961 80.817 255.631 82.7735 256.135 83.6622C260.731 79.4991 264.402 74.42 266.911 68.7524C269.421 63.0849 270.713 56.9548 270.705 50.7576C270.705 26.1988 250.813 6.28757 226.284 6.28757C222.371 6.28223 218.474 6.79956 214.697 7.82578C212.692 7.52744 210.66 7.44806 208.637 7.58911C214.234 5.2882 220.231 4.11195 226.284 4.12753C252.025 4.12753 272.859 24.9881 272.859 50.7576C272.843 58.0195 271.144 65.1791 267.896 71.6757C264.647 78.1724 259.937 83.8299 254.135 88.2053V88.2136Z" fill="#4B81BF"></path>
</svg>
